<svg width="183" height="54" viewBox="0 0 183 54" fill="none" xmlns="http://www.w3.org/2000/svg">
<path d="M61.5633 25.9232C61.5633 28.5775 63.3197 30.6215 66.3366 30.6215C69.3536 30.6215 71.11 28.5775 71.11 25.9232C71.11 23.269 69.3536 21.1855 66.3366 21.1855C63.3197 21.1855 61.5633 23.3479 61.5633 25.9232ZM61.8089 17.7934H61.8923C63.2386 15.7099 65.7666 14.7308 68.2159 14.7308C74.4583 14.7308 78.7821 19.9604 78.7821 25.9627C78.7821 31.9649 74.4977 37.0762 68.2946 37.0762C65.8894 37.0762 63.4008 36.2177 61.8089 34.3802V46.8393H54.3848V15.4269H61.8089V17.7957V17.7934Z" fill="#202F66"/>
<path d="M115.435 18.0394H115.516C117.272 15.7099 119.432 14.7308 122.127 14.7308C125.146 14.7308 127.758 15.9559 129.266 18.7331C130.693 16.1183 133.509 14.7308 136.366 14.7308C141.67 14.7308 143.505 18.2018 143.505 23.023V36.3801H136.078V26.371C136.078 24.2086 136.162 20.6542 133.017 20.6542C129.59 20.6542 129.47 23.8815 129.47 26.371V36.3801H122.043V26.371C122.043 24.0439 122.043 20.4894 118.739 20.4894C115.435 20.4894 115.435 24.0439 115.435 26.371V36.3801H108.011V15.4269H115.435V18.0417V18.0394Z" fill="#202F66"/>
<path d="M180.023 32.4196C180.023 35.0344 177.903 37.1991 175.252 37.1991C172.601 37.1991 170.479 35.0344 170.479 32.4196C170.479 29.8048 172.599 27.6401 175.252 27.6401C177.905 27.6401 180.023 29.763 180.023 32.4196Z" fill="#202F66"/>
<path d="M15.8435 30.1853C13.4916 30.1853 11.5846 28.2758 11.5846 25.9209C11.5846 23.5659 13.4916 21.6565 15.8435 21.6565C18.1954 21.6565 20.1025 23.5659 20.1025 25.9209C20.1025 28.2758 18.1954 30.1853 15.8435 30.1853ZM15.8435 14.6519C9.63587 14.6519 4.58911 19.7075 4.58911 25.9209C4.58911 32.1342 9.63819 37.1898 15.8435 37.1898C22.0489 37.1898 27.0979 32.1342 27.0979 25.9209C27.0979 19.7075 22.0489 14.6519 15.8435 14.6519Z" fill="#202F66"/>
<path d="M40.4124 30.1853C38.0605 30.1853 36.1534 28.2758 36.1534 25.9209C36.1534 23.5659 38.0605 21.6565 40.4124 21.6565C42.7643 21.6565 44.6713 23.5659 44.6713 25.9209C44.6713 28.2758 42.7643 30.1853 40.4124 30.1853ZM40.4124 14.6519C34.2047 14.6519 29.158 19.7075 29.158 25.9209C29.158 32.1342 34.207 37.1898 40.4124 37.1898C46.6177 37.1898 51.6668 32.1342 51.6668 25.9209C51.6668 19.7075 46.6177 14.6519 40.4124 14.6519Z" fill="#202F66"/>
<path d="M157.299 30.1853C154.947 30.1853 153.04 28.2758 153.04 25.9209C153.04 23.5659 154.947 21.6565 157.299 21.6565C159.651 21.6565 161.558 23.5659 161.558 25.9209C161.558 28.2758 159.651 30.1853 157.299 30.1853ZM157.299 14.6519C151.091 14.6519 146.044 19.7075 146.044 25.9209C146.044 32.1342 151.091 37.1898 157.299 37.1898C163.506 37.1898 168.553 32.1342 168.553 25.9209C168.553 19.7075 163.506 14.6519 157.299 14.6519Z" fill="#202F66"/>
<path d="M90.5763 36.3801H83.1522V21.5544H80.7446V15.4246H83.1522V9.13232H90.5763V15.4246H94.7796V21.5544H90.5763V36.3801Z" fill="#202F66"/>
<path d="M104.572 15.4246H97.1477V36.3801H104.572V15.4246Z" fill="#202F66"/>
</svg>
